<svg width="51" height="51" viewBox="0 0 51 51" fill="none" xmlns="http://www.w3.org/2000/svg">
<path d="M22 27C28.0751 27 33 22.0751 33 16C33 9.92487 28.0751 5 22 5C15.9249 5 11 9.92487 11 16C11 22.0751 15.9249 27 22 27Z" fill="white" stroke="white"/>
<path d="M3 42.9975C3 34.7146 9.71461 28 17.9975 28H26.0025C34.2854 28 41 34.7146 41 42.9975V42.9975C41 44.6557 39.6557 46 37.9975 46H6.0025C4.34427 46 3 44.6557 3 42.9975V42.9975Z" fill="white"/>
<path d="M38.4206 17.8367L47.903 27.8786C48.2453 28.2412 48.2683 28.8005 47.9568 29.1899L47.2137 30.1187C46.8358 30.5911 46.1283 30.6224 45.7102 30.1852L36.1325 20.1722C35.7744 19.7979 35.7615 19.2121 36.1027 18.8223L36.9411 17.8646C37.3296 17.4208 38.0157 17.4079 38.4206 17.8367Z" fill="white" stroke="white"/>
<path d="M35.9654 27.5008L45.6703 17.6738C46.0207 17.319 46.5789 17.2766 46.9789 17.5743L47.933 18.2845C48.4183 18.6457 48.4743 19.3516 48.052 19.7848L38.3793 29.7061C38.0177 30.077 37.4327 30.1103 37.0313 29.7829L36.0449 28.9785C35.5878 28.6057 35.551 27.9205 35.9654 27.5008Z" fill="white" stroke="white"/>
</svg>
