<svg width="51" height="51" viewBox="0 0 51 51" fill="none" xmlns="http://www.w3.org/2000/svg">
<g clip-path="url(#clip0_80_11)">
<path d="M22 27C28.0751 27 33 22.0751 33 16C33 9.92487 28.0751 5 22 5C15.9249 5 11 9.92487 11 16C11 22.0751 15.9249 27 22 27Z" fill="white" stroke="white"/>
<path d="M3 42.9975C3 34.7146 9.71461 28 17.9975 28H26.0025C34.2854 28 41 34.7146 41 42.9975V42.9975C41 44.6557 39.6557 46 37.9975 46H6.0025C4.34427 46 3 44.6557 3 42.9975V42.9975Z" fill="white"/>
<path d="M37.0288 22.9066L40.456 26.8708C40.7713 27.2354 40.7815 27.7731 40.4804 28.1495L39.7399 29.0751C39.353 29.5587 38.6241 29.578 38.2123 29.1155L34.6986 25.1703C34.3632 24.7936 34.3607 24.226 34.693 23.8465L35.5199 22.9019C35.9199 22.445 36.6316 22.4472 37.0288 22.9066Z" fill="white" stroke="white"/>
<path d="M37.9654 27.5008L47.6703 17.6738C48.0207 17.319 48.5789 17.2766 48.9789 17.5743L49.933 18.2845C50.4183 18.6457 50.4743 19.3516 50.052 19.7848L40.3793 29.7061C40.0177 30.077 39.4327 30.1103 39.0313 29.7829L38.0449 28.9785C37.5878 28.6057 37.551 27.9205 37.9654 27.5008Z" fill="white" stroke="white"/>
</g>
<defs>
<clipPath id="clip0_80_11">
<rect width="51" height="51" fill="white"/>
</clipPath>
</defs>
</svg>
